solid OpenSCAD_Model
  facet normal -1 0 0
    outer loop
      vertex -25.585 -26.315 -23.09
      vertex -25.585 25.185 41.91
      vertex -25.585 25.185 -23.09
    endloop
  endfacet
  facet normal -1 -0 0
    outer loop
      vertex -25.585 25.185 41.91
      vertex -25.585 -26.315 -23.09
      vertex -25.585 -26.315 41.91
    endloop
  endfacet
  facet normal -0 0 1
    outer loop
      vertex -25.585 25.185 41.91
      vertex 25.585 -26.315 41.91
      vertex 25.585 25.185 41.91
    endloop
  endfacet
  facet normal 0 0 1
    outer loop
      vertex 25.585 -26.315 41.91
      vertex -25.585 25.185 41.91
      vertex -25.585 -26.315 41.91
    endloop
  endfacet
  facet normal 1 -0 0
    outer loop
      vertex 25.585 -26.315 41.91
      vertex 25.585 25.185 -23.09
      vertex 25.585 25.185 41.91
    endloop
  endfacet
  facet normal 1 0 0
    outer loop
      vertex 25.585 25.185 -23.09
      vertex 25.585 -26.315 41.91
      vertex 25.585 -26.315 -23.09
    endloop
  endfacet
  facet normal 0 1 -0
    outer loop
      vertex 25.585 25.185 -23.09
      vertex -25.585 25.185 41.91
      vertex 25.585 25.185 41.91
    endloop
  endfacet
  facet normal 0 1 0
    outer loop
      vertex -25.585 25.185 41.91
      vertex 25.585 25.185 -23.09
      vertex -25.585 25.185 -23.09
    endloop
  endfacet
  facet normal 0 0 -1
    outer loop
      vertex -25.585 -26.315 -23.09
      vertex 25.585 25.185 -23.09
      vertex 25.585 -26.315 -23.09
    endloop
  endfacet
  facet normal -0 0 -1
    outer loop
      vertex 25.585 25.185 -23.09
      vertex -25.585 -26.315 -23.09
      vertex -25.585 25.185 -23.09
    endloop
  endfacet
  facet normal 0 -1 0
    outer loop
      vertex -25.585 -26.315 -23.09
      vertex 25.585 -26.315 41.91
      vertex -25.585 -26.315 41.91
    endloop
  endfacet
  facet normal 0 -1 -0
    outer loop
      vertex 25.585 -26.315 41.91
      vertex -25.585 -26.315 -23.09
      vertex 25.585 -26.315 -23.09
    endloop
  endfacet
  facet normal 1 -0 0
    outer loop
      vertex -24.95 -25.68 41.275
      vertex -24.95 24.55 -22.455
      vertex -24.95 24.55 41.275
    endloop
  endfacet
  facet normal 1 0 0
    outer loop
      vertex -24.95 24.55 -22.455
      vertex -24.95 -25.68 41.275
      vertex -24.95 -25.68 -22.455
    endloop
  endfacet
  facet normal 0 0 -1
    outer loop
      vertex -24.95 -25.68 41.275
      vertex 24.95 24.55 41.275
      vertex 24.95 -25.68 41.275
    endloop
  endfacet
  facet normal -0 0 -1
    outer loop
      vertex 24.95 24.55 41.275
      vertex -24.95 -25.68 41.275
      vertex -24.95 24.55 41.275
    endloop
  endfacet
  facet normal -1 0 0
    outer loop
      vertex 24.95 -25.68 -22.455
      vertex 24.95 24.55 41.275
      vertex 24.95 24.55 -22.455
    endloop
  endfacet
  facet normal -1 -0 0
    outer loop
      vertex 24.95 24.55 41.275
      vertex 24.95 -25.68 -22.455
      vertex 24.95 -25.68 41.275
    endloop
  endfacet
  facet normal -0 0 1
    outer loop
      vertex -24.95 24.55 -22.455
      vertex 24.95 -25.68 -22.455
      vertex 24.95 24.55 -22.455
    endloop
  endfacet
  facet normal 0 0 1
    outer loop
      vertex 24.95 -25.68 -22.455
      vertex -24.95 24.55 -22.455
      vertex -24.95 -25.68 -22.455
    endloop
  endfacet
  facet normal 0 1 -0
    outer loop
      vertex 24.95 -25.68 -22.455
      vertex -24.95 -25.68 41.275
      vertex 24.95 -25.68 41.275
    endloop
  endfacet
  facet normal 0 1 0
    outer loop
      vertex -24.95 -25.68 41.275
      vertex 24.95 -25.68 -22.455
      vertex -24.95 -25.68 -22.455
    endloop
  endfacet
  facet normal 0 -1 0
    outer loop
      vertex -24.95 24.55 -22.455
      vertex 24.95 24.55 41.275
      vertex -24.95 24.55 41.275
    endloop
  endfacet
  facet normal 0 -1 -0
    outer loop
      vertex 24.95 24.55 41.275
      vertex -24.95 24.55 -22.455
      vertex 24.95 24.55 -22.455
    endloop
  endfacet
endsolid OpenSCAD_Model
