solid OpenSCAD_Model
  facet normal -0 0 1
    outer loop
      vertex -25.585 -26.715 41.37
      vertex 25.585 -28.435 41.37
      vertex 25.585 -26.715 41.37
    endloop
  endfacet
  facet normal 0 0 1
    outer loop
      vertex 25.585 -28.435 41.37
      vertex -25.585 -26.715 41.37
      vertex -25.585 -28.435 41.37
    endloop
  endfacet
  facet normal 0 0 -1
    outer loop
      vertex -25.585 -28.435 -50.8
      vertex 25.585 -26.715 -50.8
      vertex 25.585 -28.435 -50.8
    endloop
  endfacet
  facet normal -0 0 -1
    outer loop
      vertex 25.585 -26.715 -50.8
      vertex -25.585 -28.435 -50.8
      vertex -25.585 -26.715 -50.8
    endloop
  endfacet
  facet normal 0 -1 0
    outer loop
      vertex -25.585 -28.435 -50.8
      vertex 25.585 -28.435 41.37
      vertex -25.585 -28.435 41.37
    endloop
  endfacet
  facet normal 0 -1 -0
    outer loop
      vertex 25.585 -28.435 41.37
      vertex -25.585 -28.435 -50.8
      vertex 25.585 -28.435 -50.8
    endloop
  endfacet
  facet normal 1 -0 0
    outer loop
      vertex 25.585 -28.435 41.37
      vertex 25.585 -26.715 -50.8
      vertex 25.585 -26.715 41.37
    endloop
  endfacet
  facet normal 1 0 0
    outer loop
      vertex 25.585 -26.715 -50.8
      vertex 25.585 -28.435 41.37
      vertex 25.585 -28.435 -50.8
    endloop
  endfacet
  facet normal 0 1 -0
    outer loop
      vertex 25.585 -26.715 -50.8
      vertex -25.585 -26.715 41.37
      vertex 25.585 -26.715 41.37
    endloop
  endfacet
  facet normal 0 1 0
    outer loop
      vertex -25.585 -26.715 41.37
      vertex 25.585 -26.715 -50.8
      vertex -25.585 -26.715 -50.8
    endloop
  endfacet
  facet normal -1 0 0
    outer loop
      vertex -25.585 -28.435 -50.8
      vertex -25.585 -26.715 41.37
      vertex -25.585 -26.715 -50.8
    endloop
  endfacet
  facet normal -1 -0 0
    outer loop
      vertex -25.585 -26.715 41.37
      vertex -25.585 -28.435 -50.8
      vertex -25.585 -28.435 41.37
    endloop
  endfacet
endsolid OpenSCAD_Model
