solid OpenSCAD_Model
  facet normal -0 0 1
    outer loop
      vertex -27.265 27.72 41.91
      vertex 27.265 26 41.91
      vertex 27.265 27.72 41.91
    endloop
  endfacet
  facet normal 0 0 1
    outer loop
      vertex 27.265 26 41.91
      vertex -27.265 27.72 41.91
      vertex -27.265 26 41.91
    endloop
  endfacet
  facet normal 0 0 -1
    outer loop
      vertex -27.265 26 -50.8
      vertex 27.265 27.72 -50.8
      vertex 27.265 26 -50.8
    endloop
  endfacet
  facet normal -0 0 -1
    outer loop
      vertex 27.265 27.72 -50.8
      vertex -27.265 26 -50.8
      vertex -27.265 27.72 -50.8
    endloop
  endfacet
  facet normal 0 -1 0
    outer loop
      vertex -27.265 26 -50.8
      vertex 27.265 26 41.91
      vertex -27.265 26 41.91
    endloop
  endfacet
  facet normal 0 -1 -0
    outer loop
      vertex 27.265 26 41.91
      vertex -27.265 26 -50.8
      vertex 27.265 26 -50.8
    endloop
  endfacet
  facet normal 1 -0 0
    outer loop
      vertex 27.265 26 41.91
      vertex 27.265 27.72 -50.8
      vertex 27.265 27.72 41.91
    endloop
  endfacet
  facet normal 1 0 0
    outer loop
      vertex 27.265 27.72 -50.8
      vertex 27.265 26 41.91
      vertex 27.265 26 -50.8
    endloop
  endfacet
  facet normal 0 1 -0
    outer loop
      vertex 27.265 27.72 -50.8
      vertex -27.265 27.72 41.91
      vertex 27.265 27.72 41.91
    endloop
  endfacet
  facet normal 0 1 0
    outer loop
      vertex -27.265 27.72 41.91
      vertex 27.265 27.72 -50.8
      vertex -27.265 27.72 -50.8
    endloop
  endfacet
  facet normal -1 0 0
    outer loop
      vertex -27.265 26 -50.8
      vertex -27.265 27.72 41.91
      vertex -27.265 27.72 -50.8
    endloop
  endfacet
  facet normal -1 -0 0
    outer loop
      vertex -27.265 27.72 41.91
      vertex -27.265 26 -50.8
      vertex -27.265 26 41.91
    endloop
  endfacet
endsolid OpenSCAD_Model
