solid OpenSCAD_Model
  facet normal -0 0 1
    outer loop
      vertex -55.285 52.3 53.34
      vertex 55.205 50.58 53.34
      vertex 55.205 52.3 53.34
    endloop
  endfacet
  facet normal 0 0 1
    outer loop
      vertex 55.205 50.58 53.34
      vertex -55.285 52.3 53.34
      vertex -55.285 50.58 53.34
    endloop
  endfacet
  facet normal 0 0 -1
    outer loop
      vertex -55.285 50.58 -50.8
      vertex 55.205 52.3 -50.8
      vertex 55.205 50.58 -50.8
    endloop
  endfacet
  facet normal -0 0 -1
    outer loop
      vertex 55.205 52.3 -50.8
      vertex -55.285 50.58 -50.8
      vertex -55.285 52.3 -50.8
    endloop
  endfacet
  facet normal 0 -1 0
    outer loop
      vertex -55.285 50.58 -50.8
      vertex 55.205 50.58 53.34
      vertex -55.285 50.58 53.34
    endloop
  endfacet
  facet normal 0 -1 -0
    outer loop
      vertex 55.205 50.58 53.34
      vertex -55.285 50.58 -50.8
      vertex 55.205 50.58 -50.8
    endloop
  endfacet
  facet normal 1 -0 0
    outer loop
      vertex 55.205 50.58 53.34
      vertex 55.205 52.3 -50.8
      vertex 55.205 52.3 53.34
    endloop
  endfacet
  facet normal 1 0 0
    outer loop
      vertex 55.205 52.3 -50.8
      vertex 55.205 50.58 53.34
      vertex 55.205 50.58 -50.8
    endloop
  endfacet
  facet normal 0 1 -0
    outer loop
      vertex 55.205 52.3 -50.8
      vertex -55.285 52.3 53.34
      vertex 55.205 52.3 53.34
    endloop
  endfacet
  facet normal 0 1 0
    outer loop
      vertex -55.285 52.3 53.34
      vertex 55.205 52.3 -50.8
      vertex -55.285 52.3 -50.8
    endloop
  endfacet
  facet normal -1 0 0
    outer loop
      vertex -55.285 50.58 -50.8
      vertex -55.285 52.3 53.34
      vertex -55.285 52.3 -50.8
    endloop
  endfacet
  facet normal -1 -0 0
    outer loop
      vertex -55.285 52.3 53.34
      vertex -55.285 50.58 -50.8
      vertex -55.285 50.58 53.34
    endloop
  endfacet
endsolid OpenSCAD_Model
