solid OpenSCAD_Model
  facet normal -1 0 0
    outer loop
      vertex -27.305 -41 -50.8
      vertex -27.305 27.58 41.91
      vertex -27.305 27.58 -50.8
    endloop
  endfacet
  facet normal -1 -0 0
    outer loop
      vertex -27.305 27.58 41.91
      vertex -27.305 -41 -50.8
      vertex -27.305 -41 41.91
    endloop
  endfacet
  facet normal -0 0 1
    outer loop
      vertex -27.305 27.58 41.91
      vertex -25.585 -41 41.91
      vertex -25.585 27.58 41.91
    endloop
  endfacet
  facet normal 0 0 1
    outer loop
      vertex -25.585 -41 41.91
      vertex -27.305 27.58 41.91
      vertex -27.305 -41 41.91
    endloop
  endfacet
  facet normal 1 -0 0
    outer loop
      vertex -25.585 -41 41.91
      vertex -25.585 27.58 -50.8
      vertex -25.585 27.58 41.91
    endloop
  endfacet
  facet normal 1 0 0
    outer loop
      vertex -25.585 27.58 -50.8
      vertex -25.585 -41 41.91
      vertex -25.585 -41 -50.8
    endloop
  endfacet
  facet normal 0 0 -1
    outer loop
      vertex -27.305 -41 -50.8
      vertex -25.585 27.58 -50.8
      vertex -25.585 -41 -50.8
    endloop
  endfacet
  facet normal -0 0 -1
    outer loop
      vertex -25.585 27.58 -50.8
      vertex -27.305 -41 -50.8
      vertex -27.305 27.58 -50.8
    endloop
  endfacet
  facet normal 0 -1 0
    outer loop
      vertex -27.305 -41 -50.8
      vertex -25.585 -41 41.91
      vertex -27.305 -41 41.91
    endloop
  endfacet
  facet normal 0 -1 -0
    outer loop
      vertex -25.585 -41 41.91
      vertex -27.305 -41 -50.8
      vertex -25.585 -41 -50.8
    endloop
  endfacet
  facet normal 0 1 -0
    outer loop
      vertex -25.585 27.58 -50.8
      vertex -27.305 27.58 41.91
      vertex -25.585 27.58 41.91
    endloop
  endfacet
  facet normal 0 1 0
    outer loop
      vertex -27.305 27.58 41.91
      vertex -25.585 27.58 -50.8
      vertex -27.305 27.58 -50.8
    endloop
  endfacet
  facet normal -1 0 0
    outer loop
      vertex 25.585 -41 -50.8
      vertex 25.585 27.58 41.91
      vertex 25.585 27.58 -50.8
    endloop
  endfacet
  facet normal -1 -0 0
    outer loop
      vertex 25.585 27.58 41.91
      vertex 25.585 -41 -50.8
      vertex 25.585 -41 41.91
    endloop
  endfacet
  facet normal -0 0 1
    outer loop
      vertex 25.585 27.58 41.91
      vertex 27.305 -41 41.91
      vertex 27.305 27.58 41.91
    endloop
  endfacet
  facet normal 0 0 1
    outer loop
      vertex 27.305 -41 41.91
      vertex 25.585 27.58 41.91
      vertex 25.585 -41 41.91
    endloop
  endfacet
  facet normal 1 -0 0
    outer loop
      vertex 27.305 -41 41.91
      vertex 27.305 27.58 -50.8
      vertex 27.305 27.58 41.91
    endloop
  endfacet
  facet normal 1 0 0
    outer loop
      vertex 27.305 27.58 -50.8
      vertex 27.305 -41 41.91
      vertex 27.305 -41 -50.8
    endloop
  endfacet
  facet normal 0 0 -1
    outer loop
      vertex 25.585 -41 -50.8
      vertex 27.305 27.58 -50.8
      vertex 27.305 -41 -50.8
    endloop
  endfacet
  facet normal -0 0 -1
    outer loop
      vertex 27.305 27.58 -50.8
      vertex 25.585 -41 -50.8
      vertex 25.585 27.58 -50.8
    endloop
  endfacet
  facet normal 0 -1 0
    outer loop
      vertex 25.585 -41 -50.8
      vertex 27.305 -41 41.91
      vertex 25.585 -41 41.91
    endloop
  endfacet
  facet normal 0 -1 -0
    outer loop
      vertex 27.305 -41 41.91
      vertex 25.585 -41 -50.8
      vertex 27.305 -41 -50.8
    endloop
  endfacet
  facet normal 0 1 -0
    outer loop
      vertex 27.305 27.58 -50.8
      vertex 25.585 27.58 41.91
      vertex 27.305 27.58 41.91
    endloop
  endfacet
  facet normal 0 1 0
    outer loop
      vertex 25.585 27.58 41.91
      vertex 27.305 27.58 -50.8
      vertex 25.585 27.58 -50.8
    endloop
  endfacet
endsolid OpenSCAD_Model
