solid OpenSCAD_Model
  facet normal -1 0 0
    outer loop
      vertex 52.705 -41 -50.8
      vertex 52.705 52.16 53.34
      vertex 52.705 52.16 -50.8
    endloop
  endfacet
  facet normal -1 -0 0
    outer loop
      vertex 52.705 52.16 53.34
      vertex 52.705 -41 -50.8
      vertex 52.705 -41 53.34
    endloop
  endfacet
  facet normal -0 0 1
    outer loop
      vertex 52.705 52.16 53.34
      vertex 54.425 -41 53.34
      vertex 54.425 52.16 53.34
    endloop
  endfacet
  facet normal 0 0 1
    outer loop
      vertex 54.425 -41 53.34
      vertex 52.705 52.16 53.34
      vertex 52.705 -41 53.34
    endloop
  endfacet
  facet normal 1 -0 0
    outer loop
      vertex 54.425 -41 53.34
      vertex 54.425 52.16 -50.8
      vertex 54.425 52.16 53.34
    endloop
  endfacet
  facet normal 1 0 0
    outer loop
      vertex 54.425 52.16 -50.8
      vertex 54.425 -41 53.34
      vertex 54.425 -41 -50.8
    endloop
  endfacet
  facet normal 0 1 -0
    outer loop
      vertex 54.425 52.16 -50.8
      vertex 52.705 52.16 53.34
      vertex 54.425 52.16 53.34
    endloop
  endfacet
  facet normal 0 1 0
    outer loop
      vertex 52.705 52.16 53.34
      vertex 54.425 52.16 -50.8
      vertex 52.705 52.16 -50.8
    endloop
  endfacet
  facet normal 0 0 -1
    outer loop
      vertex 52.705 -41 -50.8
      vertex 54.425 52.16 -50.8
      vertex 54.425 -41 -50.8
    endloop
  endfacet
  facet normal -0 0 -1
    outer loop
      vertex 54.425 52.16 -50.8
      vertex 52.705 -41 -50.8
      vertex 52.705 52.16 -50.8
    endloop
  endfacet
  facet normal 0 -1 0
    outer loop
      vertex 52.705 -41 -50.8
      vertex 54.425 -41 53.34
      vertex 52.705 -41 53.34
    endloop
  endfacet
  facet normal 0 -1 -0
    outer loop
      vertex 54.425 -41 53.34
      vertex 52.705 -41 -50.8
      vertex 54.425 -41 -50.8
    endloop
  endfacet
  facet normal -1 0 0
    outer loop
      vertex -54.425 -41 -50.8
      vertex -54.425 52.16 53.34
      vertex -54.425 52.16 -50.8
    endloop
  endfacet
  facet normal -1 -0 0
    outer loop
      vertex -54.425 52.16 53.34
      vertex -54.425 -41 -50.8
      vertex -54.425 -41 53.34
    endloop
  endfacet
  facet normal -0 0 1
    outer loop
      vertex -54.425 52.16 53.34
      vertex -52.705 -41 53.34
      vertex -52.705 52.16 53.34
    endloop
  endfacet
  facet normal 0 0 1
    outer loop
      vertex -52.705 -41 53.34
      vertex -54.425 52.16 53.34
      vertex -54.425 -41 53.34
    endloop
  endfacet
  facet normal 1 -0 0
    outer loop
      vertex -52.705 -41 53.34
      vertex -52.705 52.16 -50.8
      vertex -52.705 52.16 53.34
    endloop
  endfacet
  facet normal 1 0 0
    outer loop
      vertex -52.705 52.16 -50.8
      vertex -52.705 -41 53.34
      vertex -52.705 -41 -50.8
    endloop
  endfacet
  facet normal 0 0 -1
    outer loop
      vertex -54.425 -41 -50.8
      vertex -52.705 52.16 -50.8
      vertex -52.705 -41 -50.8
    endloop
  endfacet
  facet normal -0 0 -1
    outer loop
      vertex -52.705 52.16 -50.8
      vertex -54.425 -41 -50.8
      vertex -54.425 52.16 -50.8
    endloop
  endfacet
  facet normal 0 -1 0
    outer loop
      vertex -54.425 -41 -50.8
      vertex -52.705 -41 53.34
      vertex -54.425 -41 53.34
    endloop
  endfacet
  facet normal 0 -1 -0
    outer loop
      vertex -52.705 -41 53.34
      vertex -54.425 -41 -50.8
      vertex -52.705 -41 -50.8
    endloop
  endfacet
  facet normal 0 1 -0
    outer loop
      vertex -52.705 52.16 -50.8
      vertex -54.425 52.16 53.34
      vertex -52.705 52.16 53.34
    endloop
  endfacet
  facet normal 0 1 0
    outer loop
      vertex -54.425 52.16 53.34
      vertex -52.705 52.16 -50.8
      vertex -54.425 52.16 -50.8
    endloop
  endfacet
endsolid OpenSCAD_Model
